<?xml version="1.0" encoding="UTF-8"?>
<!DOCTYPE svg PUBLIC "-//W3C//DTD SVG 1.1//EN" "http://www.w3.org/Graphics/SVG/1.1/DTD/svg11.dtd">
<!-- Creator: CorelDRAW 2019 (64-Bit) -->
<svg xmlns="http://www.w3.org/2000/svg" xml:space="preserve" width="30px" height="30px" version="1.1" style="shape-rendering:geometricPrecision; text-rendering:geometricPrecision; image-rendering:optimizeQuality; fill-rule:evenodd; clip-rule:evenodd"
viewBox="0 0 30 30"
 xmlns:xlink="http://www.w3.org/1999/xlink">
 <defs>
  <style type="text/css">
   <![CDATA[
    .fil0 {fill:#095489}
   ]]>
  </style>
 </defs>
 <g id="Capa_x0020_1">
  <metadata id="CorelCorpID_0Corel-Layer"/>
  <path class="fil0" d="M29.05 13.54l-20.49 3.36c-1.9,1.68 0.11,3.14 0.11,3.14l20.04 0.11 0 2.8 -22.05 -0.22c-0.9,-0.56 -1.57,-2.36 -1.79,-3.92 -0.23,-1.57 1.45,-3.25 1.45,-3.25l-3.47 -13.1 -1.9 0 -0.45 -2.46 4.82 0 1.23 4.03 22.95 -0.11 -0.45 9.62zm-18.47 10.42c1.67,0 3.02,1.35 3.02,3.02 0,1.67 -1.35,3.02 -3.02,3.02 -1.67,0 -3.03,-1.35 -3.03,-3.02 0,-1.67 1.36,-3.02 3.03,-3.02zm14.77 0c1.67,0 3.03,1.35 3.03,3.02 0,1.67 -1.36,3.02 -3.03,3.02 -1.66,0 -3.02,-1.35 -3.02,-3.02 0,-1.67 1.36,-3.02 3.02,-3.02z"/>
 </g>
</svg>
