<?xml version="1.0" encoding="UTF-8"?>
<!DOCTYPE svg PUBLIC "-//W3C//DTD SVG 1.1//EN" "http://www.w3.org/Graphics/SVG/1.1/DTD/svg11.dtd">
<!-- Creator: CorelDRAW 2019 (64-Bit) -->
<svg xmlns="http://www.w3.org/2000/svg" xml:space="preserve" width="30px" height="30px" version="1.1" style="shape-rendering:geometricPrecision; text-rendering:geometricPrecision; image-rendering:optimizeQuality; fill-rule:evenodd; clip-rule:evenodd"
viewBox="0 0 30 30"
 xmlns:xlink="http://www.w3.org/1999/xlink">
 <defs>
  <style type="text/css">
   <![CDATA[
    .fil0 {fill:#7590BB}
   ]]>
  </style>
 </defs>
 <g id="Capa_x0020_1">
  <metadata id="CorelCorpID_0Corel-Layer"/>
  <g id="_1454454637872">
   <g>
    <path class="fil0" d="M28.99 5.91l-9.09 9.09 9.09 9.09c1.35,1.35 1.35,3.55 0,4.9 -0.68,0.67 -1.56,1.01 -2.45,1.01 -0.89,0 -1.77,-0.34 -2.45,-1.01l-9.09 -9.1 -9.09 9.1c-0.68,0.67 -1.56,1.01 -2.45,1.01 -0.88,0 -1.77,-0.34 -2.45,-1.01 -1.35,-1.35 -1.35,-3.55 0,-4.9l9.09 -9.09 -9.09 -9.09c-1.35,-1.35 -1.35,-3.55 0,-4.9 1.35,-1.35 3.54,-1.35 4.9,0l9.09 9.09 9.09 -9.09c1.35,-1.35 3.55,-1.35 4.9,0 1.35,1.35 1.35,3.55 0,4.9z"/>
   </g>
  </g>
 </g>
</svg>
