<?xml version="1.0" encoding="UTF-8"?>
<!DOCTYPE svg PUBLIC "-//W3C//DTD SVG 1.1//EN" "http://www.w3.org/Graphics/SVG/1.1/DTD/svg11.dtd">
<!-- Creator: CorelDRAW 2019 (64-Bit) -->
<svg xmlns="http://www.w3.org/2000/svg" xml:space="preserve" width="30px" height="30px" version="1.1" style="shape-rendering:geometricPrecision; text-rendering:geometricPrecision; image-rendering:optimizeQuality; fill-rule:evenodd; clip-rule:evenodd"
viewBox="0 0 30 30"
 xmlns:xlink="http://www.w3.org/1999/xlink">
 <defs>
  <style type="text/css">
   <![CDATA[
    .fil0 {fill:#095489;fill-rule:nonzero}
   ]]>
  </style>
 </defs>
 <g id="Capa_x0020_1">
  <metadata id="CorelCorpID_0Corel-Layer"/>
  <path class="fil0" d="M28.56 15c0,-3.75 -1.51,-7.14 -3.97,-9.59 -2.45,-2.46 -5.84,-3.97 -9.59,-3.97 -3.75,0 -7.14,1.51 -9.59,3.97 -2.46,2.45 -3.97,5.84 -3.97,9.59 0,3.18 1.09,6.11 2.93,8.43 0.9,-1.89 2.26,-3.47 3.93,-4.63 0.99,-0.68 2.09,-1.22 3.25,-1.57 -0.53,-0.31 -1.01,-0.68 -1.44,-1.11 -1.25,-1.25 -2.03,-2.98 -2.03,-4.89 0,-1.91 0.78,-3.64 2.03,-4.89 1.25,-1.25 2.98,-2.03 4.89,-2.03 1.91,0 3.64,0.78 4.89,2.03 1.25,1.25 2.03,2.98 2.03,4.89 0,1.91 -0.78,3.64 -2.03,4.89 -0.43,0.43 -0.91,0.8 -1.44,1.11 1.23,0.37 2.39,0.95 3.42,1.69 1.59,1.15 2.89,2.69 3.76,4.51 1.84,-2.32 2.93,-5.25 2.93,-8.43zm-2.95 -10.61c2.71,2.72 4.39,6.47 4.39,10.61 0,4.14 -1.68,7.89 -4.39,10.61 -2.72,2.71 -6.47,4.39 -10.61,4.39 -4.14,0 -7.89,-1.68 -10.61,-4.39 -2.71,-2.72 -4.39,-6.47 -4.39,-10.61 0,-4.14 1.68,-7.89 4.39,-10.61 2.72,-2.71 6.47,-4.39 10.61,-4.39 4.14,0 7.89,1.68 10.61,4.39z"/>
 </g>
</svg>
