<?xml version="1.0" encoding="UTF-8"?>
<!DOCTYPE svg PUBLIC "-//W3C//DTD SVG 1.1//EN" "http://www.w3.org/Graphics/SVG/1.1/DTD/svg11.dtd">
<!-- Creator: CorelDRAW 2019 (64-Bit) -->
<svg xmlns="http://www.w3.org/2000/svg" xml:space="preserve" width="20px" height="20px" version="1.1" style="shape-rendering:geometricPrecision; text-rendering:geometricPrecision; image-rendering:optimizeQuality; fill-rule:evenodd; clip-rule:evenodd"
viewBox="0 0 20 20"
 xmlns:xlink="http://www.w3.org/1999/xlink">
 <defs>
  <style type="text/css">
   <![CDATA[
    .fil0 {fill:#095489}
   ]]>
  </style>
 </defs>
 <g id="Capa_x0020_1">
  <metadata id="CorelCorpID_0Corel-Layer"/>
  <path class="fil0" d="M3.76 18.28l-1.76 -12.28 16 0 -1.76 12.28c-0.14,0.99 -0.98,1.72 -1.97,1.72 0,0 -0.01,0 -0.01,0l-8.53 0c0.01,0 0,0 0,0 -0.99,0 -1.83,-0.73 -1.97,-1.72l0 0zm15.24 -16.28l-5 0 0 -1c0,-0.55 -0.45,-1 -1,-1l-6 0c-0.55,0 -1,0.45 -1,1l0 1 -5 0c-0.55,0 -1,0.45 -1,1 0,0.55 0.45,1 1,1l18 0c0.55,0 1,-0.45 1,-1 0,-0.55 -0.45,-1 -1,-1l0 0z"/>
 </g>
</svg>
